<?xml version="1.0" encoding="iso-8859-1"?>
<!-- Generator: Adobe Illustrator 21.0.0, SVG Export Plug-In . SVG Version: 6.00 Build 0)  -->
<svg version="1.1" id="Layer_1" xmlns="http://www.w3.org/2000/svg" xmlns:xlink="http://www.w3.org/1999/xlink" x="0px" y="0px"
	 viewBox="0 0 24 24" enable-background="new 0 0 24 24" xml:space="preserve">
<g>
	<path fill="#D58347" d="M22.9338245,8.2526445c-0.0888615-0.1557465-0.2538891-0.2514496-0.4335632-0.2514496
		c-0.0009766,0-0.0019531,0-0.0029297,0c-0.2255707,0.0014648-5.5416145,0.0742188-7.5375729,3.4016113
		c-0.1425676,0.2367859,1.1356659,2.6892395,1.412014,2.6892395c3.3396149,0,6.4282722-5.116806,6.5581455-5.3350525
		C23.0217094,8.6022234,23.0236626,8.4093676,22.9338245,8.2526445z"/>
	<path fill="#EECDB5" d="M9.991333,7.9005785C9.9552002,7.7282763,9.8321533,7.587163,9.6661987,7.5290575
		C9.3308716,7.4117479,8.8565674,7.2160082,8.3386841,6.9582567c0.4138184-0.1720581,0.7877197-0.4238892,1.1165771-0.7592163
		c1.5887451-1.6209717,1.5477295-4.5821533,1.5457764-4.7071533c-0.0058594-0.2758789-0.2626953-0.4921265-0.5097046-0.4901733
		c-0.2763672,0.0058594-0.4960938,0.2338257-0.4902344,0.5097046c0.0009766,0.0268555,0.0380859,2.6633909-1.2606201,3.9879758
		C8.3088379,5.9398241,7.7844849,6.177556,7.1448364,6.2219896C6.512085,5.2855272,7.4671021,3.4468434,7.9153442,2.7813771
		c0.1542358-0.2285156,0.0946655-0.5395508-0.1337891-0.6938477C7.5540161,1.9342701,7.2424927,1.9932911,7.0872192,2.2213185
		C7.0250854,2.3128712,5.9993286,3.8561451,5.9447632,5.3342333C5.3880615,4.7835741,5.0014648,4.16364,5.0014648,3.5015309
		c0-2.1693115,0.6366577-2.5149536,0.6220093-2.5149536c0.2675781-0.0668945,0.4296875-0.3383789,0.3632812-0.605957
		c-0.0673828-0.2680054-0.3417969-0.434021-0.6064453-0.3637085C5.1499023,0.0740406,4.0015259,0.5129445,4.0015259,3.5015309
		c0,2.7038572,3.9713745,4.4429932,5.0650635,4.8707275l0.5166016,2.5066528
		c0.0478516,0.2367554,0.2567749,0.399353,0.4882202,0.399353c0.0341797,0,0.0673828-0.003418,0.1015625-0.0102539
		c0.2705078-0.0556641,0.4443359-0.3197632,0.3896484-0.590271L9.991333,7.9005785z"/>
	<path fill="#D58347" d="M1.0661753,8.2526445C1.1550364,8.0968981,1.3200643,8.001195,1.4997395,8.001195
		c0.0009764,0,0.001953,0,0.0029294,0c0.2255706,0.0014648,5.5416145,0.0742188,7.5375724,3.4016113
		c0.1425676,0.2367859-1.1356649,2.6892395-1.4120135,2.6892395c-3.3396158,0-6.4282722-5.116806-6.5581465-5.3350525
		C0.9782907,8.6022234,0.9763377,8.4093676,1.0661753,8.2526445z"/>
	<path opacity="0.1" enable-background="new    " d="M2.5126116,9.2805376
		c0.0728858-0.1221466,0.208245-0.1971893,0.3556185-0.1971893c0.0008008,0,0.0016019,0,0.0024028,0
		c0.1850178,0.0011444,4.5453482,0.058197,6.1824741,2.6677246c0.1169367,0.1857147-0.9314966,2.1090698-1.1581631,2.1090698
		c-2.739223,0-5.272603-4.0128937-5.3791285-4.1840515C2.440527,9.5547075,2.438925,9.4034624,2.5126116,9.2805376z"/>
	<path fill="#EECDB5" d="M18.6216431,0.0169117c-0.2705078-0.0712891-0.5595703,0.0893555-0.6259766,0.3573608
		c-0.0673828,0.2680664,0.0761719,0.5332031,0.34375,0.6000977c0.0068359,0.0029297,0.6610718,0.328064,0.6610718,2.5271606
		c0,0.6606443-0.3866577,1.279968-0.9432983,1.8305051c-0.055481-1.4774778-1.0803833-3.0192258-1.1424561-3.1107175
		c-0.1552734-0.2290039-0.4658203-0.2875366-0.6943359-0.1337891c-0.2284546,0.1542969-0.2880249,0.465332-0.1337891,0.6938477
		c0.4482422,0.6654663,1.4032593,2.5041502,0.7705078,3.4406126c-0.6396484-0.0444336-1.1620483-0.281189-1.593689-0.7206421
		c-1.2957764-1.3187256-1.2635498-3.9635618-1.2625732-3.9904172c0.0048828-0.2758789-0.2148438-0.5038452-0.4902344-0.508728
		h-0.0097656c-0.2714233,0-0.4940796,0.2167358-0.499939,0.4896851c-0.0019531,0.125-0.0429688,3.0861814,1.5457764,4.7071533
		c0.3285522,0.335022,0.7022095,0.5866089,1.1156616,0.758667C15.1447144,7.215764,14.6707153,7.41187,14.3357544,7.5295458
		c-0.1659546,0.0581055-0.2890015,0.1987305-0.3251343,0.3710327l-0.5712891,2.7771606
		c-0.0546875,0.2705078,0.1191406,0.5346069,0.3896484,0.590271c0.0341797,0.0068359,0.0673828,0.0102539,0.1015625,0.0102539
		c0.2314453,0,0.4403687-0.1625977,0.4882202-0.399353l0.5166016-2.5066528
		c1.0936279-0.4277344,5.0650635-2.1668701,5.0650635-4.8707275C20.0004272,0.5129445,18.8520508,0.0740406,18.6216431,0.0169117z"
		/>
	<path opacity="0.1" enable-background="new    " d="M21.4873886,9.2805376
		c-0.0728855-0.1221466-0.2082462-0.1971893-0.3556194-0.1971893c-0.0008011,0-0.0016003,0-0.0024014,0
		c-0.1850185,0.0011444-4.5453491,0.058197-6.1824751,2.6677246c-0.1169367,0.1857147,0.9314966,2.1090698,1.158164,2.1090698
		c2.7392216,0,5.2726021-4.0128937,5.3791275-4.1840515C21.559473,9.5547075,21.5610752,9.4034624,21.4873886,9.2805376z"/>
	<path fill="#D58347" d="M12.0009766,10.0010424c-2.2810946,0-4.9996591,0.8676147-4.9996591,4.9996338
		c0,1.1854563,0,2.2093058,1.0272737,5.163682c0.8661518,2.4880981,1.5034504,3.8356476,3.9723854,3.8356476
		c2.2808199,0,3.1062336-1.3475494,3.9723854-3.8356476c1.0272732-2.9543762,1.0272732-3.9782257,1.0272732-5.163682
		C17.0006351,10.8686571,14.2820711,10.0010424,12.0009766,10.0010424z"/>
	<path opacity="0.1" enable-background="new    " d="M15.973362,19.9143734
		c-0.8661518,2.4880981-1.691535,3.8356628-3.9723854,3.8356628c-2.4689484,0-3.1062336-1.3475647-3.9723854-3.8356628
		c-0.9616046-2.7655334-1.0222692-3.839798-1.0262361-4.9381113c0,0.0085449-0.0010376,0.0158691-0.0010376,0.0244141
		c0,1.1854563,0,2.2093058,1.0272737,5.163682c0.8661518,2.4880981,1.503437,3.8356476,3.9723854,3.8356476
		c2.2808504,0,3.1062336-1.3475494,3.9723854-3.8356476c1.0272732-2.9543762,1.0272732-3.9782257,1.0272732-5.163682
		c0-0.0085449-0.0010376-0.0158691-0.0010376-0.0244141C16.9956303,16.0745754,16.934967,17.14884,15.973362,19.9143734z"/>
	<circle fill="#333333" cx="10.0011129" cy="15.0006762" r="0.9999261"/>
	<circle fill="#333333" cx="14.0008402" cy="15.0006762" r="0.9999261"/>
	<circle fill="#D32F2F" cx="12" cy="20.0000057" r="1.5"/>
	
		<linearGradient id="SVGID_1_" gradientUnits="userSpaceOnUse" x1="10.640213" y1="4.6340733" x2="13.359787" y2="3.3659167" gradientTransform="matrix(1 0 0 -1 0 24)">
		<stop  offset="0" style="stop-color:#FFFFFF;stop-opacity:0.1"/>
		<stop  offset="1" style="stop-color:#FFFFFF;stop-opacity:0"/>
	</linearGradient>
	<circle fill="url(#SVGID_1_)" cx="12" cy="20.0000057" r="1.5"/>
	
		<linearGradient id="SVGID_2_" gradientUnits="userSpaceOnUse" x1="2.0611346" y1="17.9403763" x2="20.237999" y2="9.4643621" gradientTransform="matrix(1 0 0 -1 0 24)">
		<stop  offset="0" style="stop-color:#FFFFFF;stop-opacity:0.2"/>
		<stop  offset="1" style="stop-color:#FFFFFF;stop-opacity:0"/>
	</linearGradient>
	<path fill="url(#SVGID_2_)" d="M22.9338379,8.2526293c-0.0888672-0.1557617-0.2539062-0.2514648-0.4335938-0.2514648
		c-0.0009766,0-0.0019531,0-0.0029297,0c-0.2138062,0.0014038-4.9976196,0.0719604-7.1955566,2.9136353
		c-0.2496948-0.1830444-0.517395-0.3323975-0.796936-0.4534302l0.430542-2.0891113
		c1.0936279-0.4277344,5.0650635-2.1668701,5.0650635-4.8707275c0-2.9885864-1.1483765-3.4274902-1.3787842-3.4846191
		c-0.2705078-0.0712891-0.5595703,0.0893555-0.6259766,0.3573608c-0.0673828,0.2680664,0.0761719,0.5332031,0.34375,0.6000977
		c0.0068359,0.0029297,0.6610718,0.328064,0.6610718,2.5271606c0,0.6606443-0.3866577,1.279968-0.9432983,1.8305051
		c-0.055481-1.4774778-1.0803833-3.0192258-1.1424561-3.1107175c-0.1552734-0.2290039-0.4658203-0.2875366-0.6943359-0.1337891
		c-0.2284546,0.1542969-0.2880249,0.465332-0.1337891,0.6938477c0.4482422,0.6654663,1.4032593,2.5041502,0.7705078,3.4406126
		c-0.6396484-0.0444336-1.1620483-0.281189-1.593689-0.7206421c-1.2957764-1.3187256-1.2635498-3.9635618-1.2625732-3.9904172
		c0.0048828-0.2758789-0.2148438-0.5038452-0.4902344-0.508728h-0.0097656c-0.2714233,0-0.4940796,0.2167358-0.499939,0.4896851
		c-0.0019531,0.125-0.0429688,3.0861814,1.5457764,4.7071533c0.3285522,0.335022,0.7022095,0.5866089,1.1156616,0.758667
		C15.1447144,7.215764,14.6707153,7.41187,14.3357544,7.5295458c-0.1659546,0.0581055-0.2890015,0.1987305-0.3251343,0.3710327
		l-0.4645386,2.2582397c-0.513855-0.1112061-1.039856-0.1577759-1.545105-0.1577759s-1.03125,0.0465698-1.545105,0.1577759
		L9.991333,7.9005785C9.9552002,7.7282763,9.8321533,7.587163,9.6661987,7.5290575
		C9.3308716,7.4117479,8.8565674,7.2160082,8.3386841,6.9582567c0.4138184-0.1720581,0.7877197-0.4238892,1.1165771-0.7592163
		c1.5887451-1.6209717,1.5477295-4.5821533,1.5457764-4.7071533c-0.0058594-0.2758789-0.2626953-0.4921265-0.5097046-0.4901733
		c-0.2763672,0.0058594-0.4960938,0.2338257-0.4902344,0.5097046c0.0009766,0.0268555,0.0380859,2.6633909-1.2606201,3.9879758
		C8.3088379,5.9398241,7.7844849,6.177556,7.1448364,6.2219896C6.512085,5.2855272,7.4671021,3.4468434,7.9153442,2.7813771
		c0.1542358-0.2285156,0.0946655-0.5395508-0.1337891-0.6938477C7.5540161,1.9342701,7.2424927,1.9932911,7.0872192,2.2213185
		C7.0250854,2.3128712,5.9993286,3.8561451,5.9447632,5.3342333C5.3880615,4.7835741,5.0014648,4.16364,5.0014648,3.5015309
		c0-2.1693115,0.6366577-2.5149536,0.6220093-2.5149536c0.2675781-0.0668945,0.4296875-0.3383789,0.3632812-0.605957
		c-0.0673828-0.2680054-0.3417969-0.434021-0.6064453-0.3637085C5.1499023,0.0740406,4.0015259,0.5129445,4.0015259,3.5015309
		c0,2.7038572,3.9713745,4.4429932,5.0650635,4.8707275l0.430542,2.0891113
		c-0.2800293,0.1212158-0.5481567,0.270813-0.7982788,0.4543457c-2.1976318-2.8425903-6.9823608-2.913147-7.196167-2.9145508
		c-0.0009766,0-0.0019531,0-0.0029297,0c-0.1796875,0-0.3447266,0.0957031-0.4335938,0.2514648
		C0.9763183,8.4093676,0.9782715,8.6021776,1.0700684,8.7569628c0.1224976,0.2058716,2.8778076,4.7653198,5.9927368,5.2828369
		c-0.0361328,0.3010864-0.0614624,0.6156006-0.0614624,0.9608765c0,1.1854258,0,2.2092905,1.0272217,5.1636362
		c0.8661499,2.4880981,1.503479,3.8356934,3.9724121,3.8356934c2.2808228,0,3.1062622-1.3475952,3.9724121-3.8356934
		c1.0272217-2.9543457,1.0272217-3.9782104,1.0272217-5.1636362c0-0.3453369-0.0253296-0.6598511-0.0614624-0.9609985
		c3.1140747-0.519043,5.8682861-5.0769043,5.9907837-5.2827148C23.0217285,8.6021776,23.0236816,8.4093676,22.9338379,8.2526293z"/>
</g>
</svg>
